<svg width="2205" height="544" viewBox="0 0 2205 544" fill="none" xmlns="http://www.w3.org/2000/svg">
<g clip-path="url(#clip0_307_702)">
<path d="M272.83 271.84L35.1899 139.84C83.0699 53.64 174.23 0 272.83 0C421.96 0 544.67 122.71 544.67 271.84C544.67 420.97 421.96 543.68 272.83 543.68C189.69 543.68 110.98 505.54 59.4699 440.28L272.83 271.84Z" fill="#2E37E5"/>
<path d="M91.7302 405.36L175.27 408.93L391.05 471.72L521.4 468.01L584.96 412.02L512.81 277.84L501.17 201.09L472.02 168.36L293.63 118.26L89.1302 118.78L35.1202 139.89C35.1202 139.89 -11.9498 215.05 2.89018 312.18C11.9802 371.7 43.1602 417.33 43.1602 417.33L91.7202 405.35L91.7302 405.36Z" fill="white"/>
<path d="M44.0704 418.89C43.5104 417.99 43.6804 416.82 44.4704 416.11C57.4804 404.36 86.0204 390.41 104.12 384.05C105.63 383.52 106.18 381.67 105.22 380.4C83.1404 351.19 71.1004 329.62 72.9304 284.56C73.0704 281.13 77.9704 280.7 78.7404 284.04C101.77 385.04 152.38 393.71 179.62 402.3C265.82 429.5 410.25 466.28 484.8 464.47C492.22 463.73 499.3 462.29 506.25 460.26C508.75 459.53 508.1 455.8 505.5 455.95C496.57 456.44 487.82 456.72 478.09 455.66C406.61 447.9 313.68 416.23 251.01 381.77C237.18 374.13 223.84 365.61 211.08 356.29C208.51 354.41 205.29 353.63 202.15 354.15C195.64 355.22 190.47 356.84 184.91 359.58C182.78 360.62 180.74 358.03 182.25 356.2C193.34 342.84 214.67 339.53 229.93 347.43C232 348.5 231.26 351.61 228.93 351.6C228.53 351.6 228.14 351.6 227.74 351.6C225.44 351.6 224.68 354.69 226.72 355.75C316.75 402.98 415.11 445.58 518.69 446.9C518.73 446.9 518.77 446.9 518.81 446.9C526.37 446.57 537.19 446.9 543.77 443.1C566.03 431.5 574.31 391.85 561.68 371.2C539.77 335.36 512.4 301.67 500.69 260.39C499.96 257.82 500.6 249.01 500.51 245.67C499.31 205.39 480.19 179.57 444.59 167.09C442.36 166.31 440.65 169.12 442.34 170.77C456.36 184.38 465.56 200.37 470.63 219.21C471.25 221.53 468.23 223.03 466.75 221.13C448.51 197.72 425.68 178.22 399.62 163.86C302.74 110.33 139.56 109.86 35.1304 139.88C38.8504 132.91 45.8404 121.43 50.7304 115.03C51.0204 114.65 51.4304 114.38 51.8904 114.26C129.72 94.0096 258.89 94.4796 335.85 115.25C350.71 119.26 365.33 124.07 379.67 129.66C382.68 130.8 385.93 132.01 388.8 133.42C398.06 137.99 409.56 140.19 419.84 141.57C467.49 147.98 507.69 169.62 520.93 219.94C525.01 235.67 526.12 252.01 524.19 268.14C524.13 268.66 524.25 269.18 524.54 269.62C537.7 289.18 550.69 308.85 563.54 328.62C580.61 355.16 599.43 380.09 592.63 413.37C588.03 435.86 575.42 452.81 556.28 465.43C506.61 497.91 426.98 484.23 372.31 472.99C336.71 465.36 301.37 456.54 266.37 446.52C250.86 442.16 235.39 437.7 219.94 433.14C210.74 430.42 201.24 427.73 192.11 424.84C155.41 413.21 115.28 416.26 74.0504 432.89C67.7104 435.64 63.8004 436.94 59.5704 440.35" fill="#1E1E1E"/>
<path d="M395.25 291.08C395.97 308.44 389.78 325.37 378.03 338.18C364.8 352.33 348.6 358.88 329.4 360.12C307.41 361.57 285.75 354.16 269.26 339.53C253.32 325.58 242.26 305.43 240.9 284.13C239.57 266.14 245.55 248.38 257.47 234.85C269.85 220.82 287.03 213.54 305.44 211.95C351.17 209.99 393.56 244.29 395.24 291.09L395.25 291.08Z" fill="#1E1E1E"/>
<path d="M333.83 232.22C358.71 240.33 378.57 263.78 378.88 290.48C378.97 297.91 377.6 303.95 375.03 310.1C374.43 311.55 372.27 311.02 372.39 309.45C373.87 289.09 366.55 271.96 349.34 258.52C335.32 248.27 319.13 243.31 301.75 245.99C286.71 248.2 269.02 255.69 260.14 268.03L256.85 272.63C255.92 273.94 253.9 272.85 254.46 271.34C265.71 241.11 283.55 234.23 302.92 230.5C312.54 228.65 322.49 228.85 331.89 231.62C332.53 231.81 333.17 232.01 333.82 232.22H333.83Z" fill="white"/>
<path d="M535.77 413.58C536.21 418.09 530.41 420.55 527.04 419.68C521.27 418.19 512.71 413.03 509.52 406.23C506.68 400.17 508.26 389.98 516.96 390.92C528.71 392.2 534.71 402.73 535.77 413.58Z" fill="#1E1E1E"/>
<path d="M297.01 281.74C302.478 281.74 306.91 277.308 306.91 271.84C306.91 266.373 302.478 261.94 297.01 261.94C291.543 261.94 287.11 266.373 287.11 271.84C287.11 277.308 291.543 281.74 297.01 281.74Z" fill="white"/>
<path d="M794.16 384.73V159.53H957.61V195.56H840.17V384.73H794.16Z" fill="#1E1E1E"/>
<path d="M972.74 312.821C975.31 341.401 995.26 355.371 1016.5 355.371C1030.34 355.371 1043.85 350.711 1052.86 336.111H1098.55C1089.22 360.961 1064.12 388.601 1016.82 388.601C961.16 388.601 928.66 348.531 928.66 300.381C928.66 252.231 964.38 213.721 1015.53 213.721C1066.68 213.721 1102.08 253.791 1100.47 312.811H972.73L972.74 312.821ZM973.38 283.311H1055.43C1054.46 255.041 1033.87 245.101 1015.21 245.101C998.48 245.101 976.92 255.041 973.38 283.311Z" fill="#1E1E1E"/>
<path d="M1125.39 384.73V217.62H1170.11V298.69H1170.43L1231.24 217.62H1281.43L1216.11 299.93L1284.32 384.73H1233.16L1170.42 302.73H1170.1V384.73H1125.38H1125.39Z" fill="#1E1E1E"/>
<path d="M1298.44 384.881V217.771H1343.16V298.84H1343.48L1404.29 217.771H1454.48L1389.16 300.08L1457.37 384.881H1406.21L1343.47 302.881H1343.15V384.881H1298.43H1298.44Z" fill="#1E1E1E"/>
<path d="M1452.11 301.481C1452.11 242.771 1495.23 213.891 1538.98 213.891C1582.73 213.891 1625.85 242.781 1625.85 301.481C1625.85 360.181 1582.73 388.761 1538.98 388.761C1495.23 388.761 1452.11 359.871 1452.11 301.481ZM1497.16 301.481C1497.16 336.581 1514.53 355.221 1538.99 355.221C1563.45 355.221 1580.82 336.581 1580.82 301.481C1580.82 266.381 1563.45 247.431 1538.99 247.431C1514.53 247.431 1497.16 266.381 1497.16 301.481Z" fill="#1E1E1E"/>
<path d="M1625.86 423.711V351.021H1635.51C1652.24 351.021 1660.61 337.041 1664.15 267.461L1666.4 217.761H1799.29V351.021H1826V423.711H1784.81V384.881H1667.05V423.711H1625.87H1625.86ZM1754.88 351.031V251.631H1706.29L1704.36 282.071C1701.79 316.861 1699.53 332.391 1687.31 351.031H1754.88Z" fill="#1E1E1E"/>
<path d="M1846.1 384.73V217.62H1889.54V331.62L1965.8 217.62H2010.2V384.73H1966.76V274.77L1890.5 384.73H1846.1Z" fill="#1E1E1E"/>
<path d="M2030.3 301.481C2030.3 242.771 2073.42 213.891 2117.17 213.891C2160.92 213.891 2204.04 242.781 2204.04 301.481C2204.04 360.181 2160.92 388.761 2117.17 388.761C2073.42 388.761 2030.3 359.871 2030.3 301.481ZM2075.34 301.481C2075.34 336.581 2092.71 355.221 2117.17 355.221C2141.63 355.221 2159 336.581 2159 301.481C2159 266.381 2141.63 247.431 2117.17 247.431C2092.71 247.431 2075.34 266.381 2075.34 301.481Z" fill="#1E1E1E"/>
</g>
<defs>
<clipPath id="clip0_307_702">
<rect width="2204.04" height="543.68" fill="white"/>
</clipPath>
</defs>
</svg>
