<svg xmlns="http://www.w3.org/2000/svg" viewBox="0 0 1600 900" role="img" aria-labelledby="title desc">
  <title id="title">n8n workflow</title>
  <desc id="desc">Dark n8n workflow diagram with webhook, Supabase, OpenAI and condition nodes.</desc>
  <defs>
    <pattern id="dots" width="18" height="18" patternUnits="userSpaceOnUse">
      <circle cx="2" cy="2" r="1.2" fill="#272727"/>
    </pattern>
    <filter id="soft" x="-20%" y="-20%" width="140%" height="140%">
      <feDropShadow dx="0" dy="8" stdDeviation="10" flood-color="#000" flood-opacity="0.28"/>
    </filter>
  </defs>
  <rect width="1600" height="900" fill="#111"/>
  <rect width="1600" height="900" fill="url(#dots)" opacity="0.85"/>

  <g fill="none" stroke="#3e3e3e" stroke-width="3">
    <path d="M160 474C250 474 250 474 332 474"/>
    <path d="M420 474C496 474 496 410 570 410"/>
    <path d="M420 474C496 474 496 546 570 546"/>
    <path d="M420 474C496 474 496 688 570 688"/>
    <path d="M752 410C820 410 820 410 884 410"/>
    <path d="M752 546C820 546 820 546 884 546"/>
    <path d="M752 688C820 688 820 688 884 688"/>
    <path d="M968 400C1038 350 1038 126 1114 126"/>
    <path d="M968 420C1038 466 1038 276 1114 276"/>
    <path d="M968 536C1038 500 1038 420 1114 420"/>
    <path d="M968 556C1038 602 1038 562 1114 562"/>
    <path d="M968 678C1038 632 1038 704 1114 704"/>
    <path d="M968 698C1038 754 1038 820 1114 820"/>
    <path d="M1230 126C1322 126 1322 474 1412 474"/>
    <path d="M1230 276C1322 276 1322 474 1412 474"/>
    <path d="M1230 420C1322 420 1322 474 1412 474"/>
    <path d="M1230 562C1322 562 1322 474 1412 474"/>
    <path d="M1230 704C1322 704 1322 474 1412 474"/>
    <path d="M1230 820C1322 820 1322 474 1412 474"/>
  </g>

  <g font-family="Arial, Helvetica, sans-serif" filter="url(#soft)">
    <rect x="82" y="432" width="92" height="72" rx="12" fill="#27272a" stroke="#2e37e5" stroke-width="2"/>
    <text x="128" y="472" text-anchor="middle" font-size="13" fill="#fff">Webhook</text>
    <circle cx="88" cy="452" r="4" fill="#ff6b55"/>

    <rect x="260" y="432" width="96" height="72" rx="9" fill="#2f2f32"/>
    <text x="308" y="468" text-anchor="middle" font-size="12" fill="#fff">Supabase</text>
    <text x="308" y="487" text-anchor="middle" font-size="10" fill="#a8a8a8">getAll: row</text>
    <path d="M308 448l12 21h-13l-8 17 1-23h-12z" fill="#2ce37d"/>

    <rect x="374" y="430" width="102" height="76" rx="10" fill="#2f2f32"/>
    <text x="425" y="468" text-anchor="middle" font-size="13" fill="#fff">Loop Over Items</text>
    <path d="M409 449c10-11 29-7 33 7M442 456h-13M441 486c-10 11-29 7-33-7M408 479h13" stroke="#6dd4d7" stroke-width="4" fill="none" stroke-linecap="round"/>

    <rect x="520" y="470" width="74" height="74" rx="10" fill="#362d34"/>
    <text x="557" y="532" text-anchor="middle" font-size="13" fill="#fff">Wait</text>
    <circle cx="557" cy="498" r="16" fill="#d95071"/>
    <path d="M557 489v18M548 498h18" stroke="#fff" stroke-width="4" stroke-linecap="round"/>

    <rect x="570" y="370" width="150" height="82" rx="8" fill="#2f2f32"/>
    <rect x="570" y="506" width="150" height="82" rx="8" fill="#2f2f32"/>
    <rect x="570" y="648" width="150" height="82" rx="8" fill="#2f2f32"/>
    <g font-size="12" fill="#fff">
      <text x="646" y="408" text-anchor="middle">OpenAI</text>
      <text x="646" y="544" text-anchor="middle">OpenAI1</text>
      <text x="646" y="686" text-anchor="middle">OpenAI2</text>
    </g>
    <g font-size="10" fill="#aaa">
      <text x="646" y="428" text-anchor="middle">Message Model</text>
      <text x="646" y="564" text-anchor="middle">Message Model</text>
      <text x="646" y="706" text-anchor="middle">Message Model</text>
    </g>

    <rect x="884" y="372" width="72" height="72" rx="8" fill="#2f2f32"/>
    <rect x="884" y="508" width="72" height="72" rx="8" fill="#2f2f32"/>
    <rect x="884" y="650" width="72" height="72" rx="8" fill="#2f2f32"/>
    <g stroke="#2ce37d" stroke-width="4" fill="none" stroke-linecap="round" stroke-linejoin="round">
      <path d="M910 410h22M920 400v34M910 410c0 9 20 9 20 0"/>
      <path d="M910 546h22M920 536v34M910 546c0 9 20 9 20 0"/>
      <path d="M910 688h22M920 678v34M910 688c0 9 20 9 20 0"/>
    </g>

    <g>
      <rect x="1114" y="86" width="96" height="78" rx="8" fill="#2f2f32"/>
      <rect x="1114" y="236" width="96" height="78" rx="8" fill="#2f2f32"/>
      <rect x="1114" y="380" width="96" height="78" rx="8" fill="#2f2f32"/>
      <rect x="1114" y="522" width="96" height="78" rx="8" fill="#2f2f32"/>
      <rect x="1114" y="664" width="96" height="78" rx="8" fill="#2f2f32"/>
      <rect x="1114" y="780" width="96" height="78" rx="8" fill="#2f2f32"/>
      <g fill="#2ce37d">
        <path d="M1162 104l14 25h-16l-10 20 2-28h-14z"/>
        <path d="M1162 254l14 25h-16l-10 20 2-28h-14z"/>
        <path d="M1162 398l14 25h-16l-10 20 2-28h-14z"/>
        <path d="M1162 540l14 25h-16l-10 20 2-28h-14z"/>
        <path d="M1162 682l14 25h-16l-10 20 2-28h-14z"/>
        <path d="M1162 798l14 25h-16l-10 20 2-28h-14z"/>
      </g>
      <g font-size="13" fill="#fff" text-anchor="middle">
        <text x="1162" y="168">Supabase4</text>
        <text x="1162" y="318">Supabase1</text>
        <text x="1162" y="462">Supabase5</text>
        <text x="1162" y="604">Supabase2</text>
        <text x="1162" y="746">Supabase6</text>
        <text x="1162" y="862">Supabase3</text>
      </g>
    </g>

    <rect x="1412" y="432" width="142" height="82" rx="9" fill="#2f2f32" stroke="#3a3a3d"/>
    <text x="1483" y="481" text-anchor="middle" font-size="13" fill="#fff">No Operation, do nothing</text>
    <path d="M1474 454h22M1490 448l8 8-8 8" stroke="#767676" stroke-width="4" fill="none" stroke-linecap="round" stroke-linejoin="round"/>
  </g>
</svg>
